<svg xmlns="http://www.w3.org/2000/svg" width="256" height="256" viewBox="0 0 100 100"><path fill="#000000" d="M28.58 38.64L28.58 38.64Q28.58 39.83 27.95 40.74Q27.33 41.65 26.50 42.17L26.50 42.17Q25.14 41.29 23.56 40.61Q21.97 39.94 19.79 39.94L19.79 39.94Q15.63 39.94 13.29 42.56Q10.95 45.19 10.95 50.03L10.95 50.03Q10.95 55.02 13.42 57.54Q15.89 60.06 20.20 60.06L20.20 60.06Q22.44 60.06 24.03 59.46Q25.61 58.87 26.96 58.03L26.96 58.03Q27.74 58.66 28.24 59.62Q28.73 60.58 28.73 61.78L28.73 61.78Q28.73 62.82 28.19 63.73Q27.64 64.64 26.29 65.26L26.29 65.26Q25.25 65.78 23.48 66.22Q21.71 66.67 19.11 66.67L19.11 66.67Q15.63 66.67 12.61 65.68Q9.60 64.69 7.36 62.66Q5.12 60.63 3.85 57.49Q2.58 54.34 2.58 50.03L2.58 50.03Q2.58 45.97 3.85 42.85Q5.12 39.73 7.31 37.62Q9.49 35.52 12.40 34.43Q15.32 33.33 18.64 33.33L18.64 33.33Q23.38 33.33 25.98 34.84Q28.58 36.35 28.58 38.64ZM53.64 63.08L52.39 58.87L42.20 58.87Q41.63 60.74 41.13 62.56Q40.64 64.38 40.28 65.78L40.28 65.78Q39.60 65.99 38.87 66.15Q38.14 66.30 37.10 66.30L37.10 66.30Q34.82 66.30 33.65 65.50Q32.48 64.69 32.48 63.18L32.48 63.18Q32.48 62.45 32.68 61.78Q32.89 61.10 33.15 60.22L33.15 60.22Q33.52 58.81 34.19 56.73Q34.87 54.65 35.67 52.24Q36.48 49.82 37.36 47.27Q38.25 44.72 39.08 42.41Q39.91 40.09 40.59 38.17Q41.26 36.25 41.73 35.10L41.73 35.10Q42.51 34.63 44.15 34.22Q45.79 33.80 47.40 33.80L47.40 33.80Q49.74 33.80 51.53 34.45Q53.33 35.10 53.85 36.61L53.85 36.61Q54.84 39.37 55.98 43.01Q57.12 46.65 58.29 50.49Q59.46 54.34 60.56 58.09Q61.65 61.83 62.48 64.79L62.48 64.79Q61.91 65.47 60.79 65.89Q59.67 66.30 58.11 66.30L58.11 66.30Q55.88 66.30 54.97 65.52Q54.06 64.74 53.64 63.08L53.64 63.08ZM47.66 41.08L47.35 41.08Q46.62 43.42 45.55 46.41Q44.49 49.40 43.55 52.52L43.55 52.52L50.99 52.52Q50.10 49.25 49.19 46.26Q48.28 43.27 47.66 41.08L47.66 41.08ZM97.42 49.97L97.42 49.97Q97.42 54.03 96.20 57.15Q94.98 60.27 92.80 62.38Q90.61 64.48 87.65 65.57Q84.68 66.67 81.20 66.67L81.20 66.67Q77.72 66.67 74.75 65.57Q71.79 64.48 69.63 62.38Q67.47 60.27 66.25 57.15Q65.03 54.03 65.03 49.97L65.03 49.97Q65.03 45.92 66.28 42.82Q67.52 39.73 69.71 37.62Q71.89 35.52 74.83 34.43Q77.77 33.33 81.20 33.33L81.20 33.33Q84.63 33.33 87.60 34.43Q90.56 35.52 92.74 37.62Q94.93 39.73 96.18 42.82Q97.42 45.92 97.42 49.97ZM89 49.97L89 49.97Q89 44.98 86.89 42.46Q84.79 39.94 81.20 39.94L81.20 39.94Q77.66 39.94 75.53 42.46Q73.40 44.98 73.40 49.97L73.40 49.97Q73.40 55.02 75.51 57.54Q77.61 60.06 81.20 60.06L81.20 60.06Q84.79 60.06 86.89 57.54Q89 55.02 89 49.97Z"></path></svg>